<?xml version="1.0" encoding="UTF-8"?>
<svg id="Layer_1" xmlns="http://www.w3.org/2000/svg" version="1.1" viewBox="0 0 576 194.13">
  <!-- Generator: Adobe Illustrator 29.6.1, SVG Export Plug-In . SVG Version: 2.1.1 Build 9)  -->
  <defs>
    <style>
      .st0 {
        fill: #f0ce67;
      }

      .st1 {
        fill: #f6f6e4;
      }
    </style>
  </defs>
  <path class="st0" d="M3.29,102.69c0-4.61,0-9.1,0-13.94.22.54.31.76.42,1.02.14-2.1.17-4.17.43-6.2.36-2.84.84-5.68,1.36-8.5.38-2.03.79-4.07,1.4-6.03.68-2.19,1.55-4.32,2.43-6.44,1.43-3.49,2.83-6.99,4.44-10.4.99-2.09,2.3-4.04,3.55-6,1.89-2.94,3.71-5.95,5.83-8.72,2.05-2.68,4.42-5.1,6.67-7.62,3.91-4.38,8.54-7.95,13.19-11.46,2.83-2.14,5.94-3.94,9.03-5.71,3.1-1.79,6.28-3.44,9.51-4.98,1.91-.91,4.15-1.21,5.94-2.28,1.98-1.19,4.15-1.35,6.24-1.91,3.45-.93,6.95-1.68,10.5-2.52,0,.28.02.22,0,.2-.11-.08-.24-.15-.57-.35C92.47-.44,101.08.17,109.67,0c.87-.02,1.74-.03,1.9,1.05.13.91-.54,1.23-1.31,1.61-2.77,1.37-5.54,2.77-8.2,4.34-3.27,1.93-6.55,3.87-9.6,6.1-2.82,2.07-5.4,4.48-8.01,6.84-2.07,1.87-4.04,3.86-6,5.86-.67.68-1.12,1.56-1.73,2.3-.84,1.01-1.82,1.92-2.6,2.98-1.87,2.54-3.81,5.04-5.44,7.73-1.72,2.86-3.14,5.9-4.62,8.89-.9,1.8-1.75,3.64-2.49,5.51-.7,1.76-1.26,3.58-1.8,5.4-.59,1.97-.85,4.08-1.69,5.94-.94,2.07-.84,4.18-1.08,6.3-.1.91-.69,1.77-.76,2.68-.26,3.21-.38,6.43-.59,9.64-.15,2.21-.59,4.43-.49,6.63.2,4.38.62,8.75,1.07,13.12.22,2.13.32,4.42,1.23,6.28,1.12,2.3,1.06,4.83,2.11,7.11.93,2.02,1.4,4.25,2.15,6.36.36,1,.88,1.93,1.36,2.88,1.08,2.17,2.15,4.36,3.27,6.51,2.03,3.9,4.36,7.6,7.15,11.02,2.06,2.52,3.92,5.21,6.08,7.63,2,2.24,4.21,4.31,6.48,6.27,3.68,3.18,7.33,6.42,11.28,9.24,3.21,2.29,6.83,4.02,10.28,5.96,1.63.92,3.27,1.82,4.97,2.6,2.31,1.05,4.65,2.03,7.01,2.94,2.28.88,4.58,1.71,6.92,2.43,1.88.58,3.96.67,5.69,1.5,2,.96,4.12.75,6.11,1.35.33.1.73.85.65,1.2-.11.5-.54,1.1-1,1.31-1.49.7-3.05,1.25-4.6,1.84-1.14.43-2.3.83-3.46,1.25.17.08.32.15.53.25-1.39.32-2.72.62-4.05.95-1.28.31-2.54.67-3.82.97-1.76.42-3.51.85-5.28,1.21-2.04.42-4.09.79-6.13,1.18-.31.06-.61.19-.92.19-4.74.1-9.48.23-14.22.26-2.09.02-4.19-.06-6.26-.29-1.65-.18-3.27-.67-4.91-1-2.01-.4-4.04-.72-6.04-1.18-1.27-.3-2.47-.87-3.73-1.2-1.61-.42-3.25-.72-4.94-1.09.09-.07.2-.15.28-.22-1.87-.69-3.82-1.32-5.68-2.14-2.46-1.09-4.89-2.28-7.27-3.54-2.44-1.29-4.86-2.65-7.2-4.1-3.09-1.92-6.27-3.75-9.12-6-3.46-2.73-6.65-5.8-9.88-8.8-1.78-1.66-3.57-3.36-5.06-5.27-2.59-3.34-4.95-6.85-7.4-10.3-1.18-1.67-2.39-3.32-3.46-5.05-.69-1.13-1.14-2.41-1.71-3.62-.76-1.62-1.58-3.2-2.27-4.85-.84-1.99-1.55-4.03-2.35-6.04-.68-1.71-1.44-3.38-2.07-5.1-.33-.92-.46-1.92-.65-2.89-.56-2.82-1.19-5.64-1.62-8.48-.47-3.07-.76-6.17-1.12-9.18.06-.05-.07.06-.3.23,0-.29,0-.5,0-.83Z"/>
  <path class="st0" d="M92.71,105.62c6.93-.01,13.73,0,20.52-.04,2.9-.02,5.8-.23,8.7-.22,13.56.06,27.12.17,40.68.26,1.75.01,2.78,1.03,2.78,2.73,0,.89,0,1.79,0,2.42,2.59.3,5.24.29,7.7.99,1.69.48,3.23,1.78,4.61,2.97,1.86,1.59,3.02,3.6,3.45,6.14.17,1.02.79,2.03.7,3.18-.24,2.89-1.2,5.56-2.8,7.94-1.91,2.85-4.72,4.68-7.71,6.21-.94.48-2.1.51-3.11.88-2.87,1.05-5.86.88-8.81.78-1.68-.06-2.87.34-3.9,1.76-1.56,2.14-3.21,4.26-5.09,6.12-1.73,1.71-3.72,3.21-5.78,4.51-1.7,1.08-3.66,1.78-5.54,2.54-.73.3-1.58.45-2.37.45-7.68.03-15.36-.02-23.04.04-2.48.02-4.54-1.15-6.51-2.26-2.4-1.34-4.61-3.11-6.71-4.91-1.74-1.49-3.32-3.21-4.75-5-1.76-2.21-3.49-4.49-4.89-6.93-1.43-2.51-2.63-5.18-3.58-7.91-1.02-2.94-1.94-5.99-2.35-9.07-.51-3.74-1.22-7.54-.43-11.36.34-1.64,1.09-2.21,2.74-2.23,1.78-.01,3.57,0,5.49,0M163.16,126.54c-.74,2.24-1.47,4.48-2.23,6.78,1.13,0,2.23.08,3.32-.02,2.56-.23,4.89-1.07,7.07-2.48,1.95-1.26,2.85-3.21,3.61-5.15.97-2.48.07-4.94-1.76-6.56-2.38-2.1-5.22-1.52-7.99-1.1-.24.04-.53.47-.59.77-.5,2.51-.94,5.02-1.44,7.76Z"/>
  <path class="st1" d="M268.8,53.78c0-3.93-.05-7.72.01-11.52.08-4.64,4.13-7.31,8.54-6.1,2.14.59,3.33,2.51,4.5,4.28,2.06,3.09,4.09,6.21,6.11,9.33,1.91,2.96,3.74,5.97,5.68,8.91,1.62,2.46,3.35,4.83,5,7.27,1.05,1.56,2.03,3.17,3.04,4.76.24.37.51.73,1.03,1.45.05-.87.09-1.34.09-1.8,0-9.14-.05-18.28.05-27.42.02-1.7.51-3.47,1.14-5.07.62-1.57,3.56-2.36,5.71-1.86,1.54.36,2.9,2.25,3.28,3.83,1.01,4.14.43,8.32.47,12.47.11,10.51.12,21.02-.04,31.53-.03,1.9-.33,4.04-1.95,5.58-1.75,1.66-6.33,2.12-8.12.47-1.68-1.55-3.18-3.35-4.53-5.2-1.8-2.45-3.4-5.05-5.05-7.61-1.96-3.03-3.87-6.11-5.83-9.14-1.66-2.56-3.39-5.09-5.07-7.64-1.08-1.64-2.12-3.29-3.38-5.25,0,9.91.03,19.4-.02,28.9-.01,2.13-.34,4.23-2.14,5.77-1.7,1.46-3.68,1.49-5.51.74-1.96-.8-3.03-2.51-3.03-4.74,0-9.55,0-19.1,0-28.65v-3.29Z"/>
  <path class="st1" d="M346.9,54.81c5.5-5.27,16.82-6.4,23.58,1.67.03-.57.09-.99.07-1.41-.09-2.54,2.52-4.78,5.4-4.45,3.15.36,4.15,2.62,4.17,5.52.07,11.06.08,22.12,0,33.17-.03,3.28-.87,6.44-2.64,9.27-1.3,2.08-3.09,3.56-5.33,4.65-5,2.43-10.34,2.46-15.59,2-3.77-.34-7.53-1.58-10.62-4.02-2.23-1.76-3.6-4.05-3.09-7.09.18-1.1,1.95-2.85,3.25-3.01,2.1-.25,3.83.32,5.16,2.14,2.66,3.62,6.15,5.4,10.73,4.43,1.34-.28,2.7-.53,4-.96,2.45-.8,3.05-2.98,3.4-5.14.38-2.4.49-4.83.76-7.69-.75.79-1.2,1.29-1.68,1.77-2.44,2.49-5.31,4.11-8.88,4.03-2.26-.06-4.6-.03-6.76-.59-2.98-.77-5.33-2.7-7.26-5.15-2.06-2.63-3.19-5.7-3.7-8.86-.47-2.92-.21-5.97-.15-8.96.06-2.98,1.34-5.62,2.67-8.19.59-1.13,1.6-2.04,2.49-3.12M366.63,79.88c2.14-1.68,2.9-4.18,3.29-6.6.5-3.09.2-6.29-1.07-9.21-.59-1.36-1.65-2.55-2.61-3.72-1.39-1.69-3.51-1.78-5.39-1.77-1.68.01-3.5.05-4.99,1.4-2.2,2-3.41,4.39-3.68,7.31-.05.59,0,1.19-.05,1.78-.24,3.09-.16,6.12,1.46,8.92,2.66,4.58,8.78,5.72,13.03,1.9Z"/>
  <path class="st1" d="M202.45,62.57c1.44-3.67,2.86-7.22,4.25-10.8.7-1.81,1.27-3.67,2.02-5.45,1.05-2.47,2.03-5,3.39-7.3,1.1-1.86,2.91-2.94,5.27-3.11,2.95-.21,5.49.56,7.18,2.94,1.2,1.69,1.93,3.73,2.78,5.65.82,1.86,1.54,3.77,2.3,5.65.62,1.55,1.22,3.1,1.83,4.65.9,2.26,1.81,4.52,2.7,6.78,1.59,4.03,3.19,8.06,4.76,12.09,1.34,3.44,2.82,6.84,3.91,10.35.69,2.22.29,4.41-1.95,5.9-1.86,1.24-3.78,1.23-5.68.36-.72-.33-1.44-1.04-1.78-1.75-1.16-2.45-2.18-4.96-3.21-7.47-.46-1.12-.79-2.3-1.28-3.41-.12-.27-.63-.53-.96-.53-6.4-.03-12.79-.03-19.19,0-.3,0-.75.31-.86.59-.8,1.91-1.47,3.87-2.29,5.77-.88,2.02-1.72,4.1-2.88,5.96-1.11,1.77-5.21,2.01-6.62.47-.95-1.03-1.64-2.3-2.4-3.5-.15-.24-.16-.66-.07-.93.55-1.65,1.14-3.29,1.74-4.93.68-1.86,1.36-3.72,2.08-5.57,1.16-2.95,2.36-5.87,3.54-8.81.47-1.17.93-2.33,1.43-3.6M223.05,61.52c-1.59-4.33-3.18-8.67-4.79-13.04-2.46,6.8-4.88,13.5-7.32,20.24h14.69c-.87-2.42-1.68-4.71-2.58-7.2Z"/>
  <path class="st1" d="M422.91,120.13c-1.24,3.9-1.54,7.78-1.35,11.74.18,3.75,1.03,7.36,2.9,10.58,1.34,2.31,3.48,3.94,6.17,4.77,2.24.69,4.47,1.07,6.78.64,3.79-.71,6.84-2.52,8.62-6.08.88-1.77,1.67-3.59,2.54-5.36.82-1.68,2.39-2.46,4.44-2.26,1.9.19,3.27,1.06,4.07,2.91,1.27,2.93.03,5.5-1.08,8.04-1.13,2.58-2.78,4.87-5.07,6.59-2.1,1.58-4.3,2.96-6.83,3.84-4.48,1.54-9.02,1.23-13.59.85-3.87-.32-7.38-1.72-10.48-4.01-1.88-1.39-3.67-2.92-4.73-5.13-1.16-2.43-2.68-4.71-3.61-7.22-1.43-3.84-1.75-7.93-1.6-12.02.07-1.95.1-3.95.58-5.81,1.32-5.11,3.22-9.95,7.28-13.67,3.17-2.91,6.74-4.84,10.91-5.99,4.06-1.12,8.12-1.04,12.11-.39,3.23.53,6.3,1.93,9.03,3.85,2.93,2.07,5.35,4.68,6.6,8.07.59,1.6.59,3.48.57,5.22-.02,1.37-1.85,3.14-3.28,3.27-1.85.18-3.83.36-5.08-1.51-1.03-1.54-1.92-3.17-2.94-4.73-2.04-3.13-4.62-5.22-8.63-5.63-1.89-.19-3.58.1-5.31.41-3.96.7-6.32,3.45-8.09,6.81-.35.67-.6,1.4-.91,2.21Z"/>
  <path class="st1" d="M403.59,52.48c3.72-2.17,7.69-2.19,11.58-1.38,3.29.69,5.8,2.78,7.52,5.78,1.41,2.47,1.64,5.13,1.63,7.86,0,6.99-.02,13.98,0,20.97,0,2.66-1.42,4.58-3.39,4.93-3.98.71-6.61-.38-6.73-5.12-.15-5.8.03-11.6-.07-17.41-.03-1.77-.49-3.53-.78-5.29-.48-2.99-2.6-3.91-5.27-4.12-2.9-.23-6.45,1.72-7.43,4.45-.69,1.93-1.17,4.03-1.24,6.08-.17,5.34-.05,10.69-.06,16.03,0,1.62-.29,3.1-1.61,4.32-1.26,1.16-3.93,1.7-6,.92-1.37-.51-2.51-2.32-2.54-4.06-.02-1.46,0-2.92,0-4.39,0-13.61.04-27.23-.03-40.84-.01-2.76,1.58-4.69,3.19-5.17,2.55-.76,5.15.17,6.38,2.4.47.86.57,2.01.58,3.03.06,4.7.03,9.41.03,14.27,1.44-1.12,2.79-2.17,4.23-3.27Z"/>
  <path class="st1" d="M305.28,132.5c0-8.64-.07-17.14.03-25.65.05-4.72,3.26-5.85,6.86-4.82,1.95.56,3.25,2.19,3.26,5.07.01,4.8,0,9.6,0,14.5,1.17-.9,2.27-1.74,3.35-2.6,2.14-1.72,4.61-2.46,7.32-2.4,1.54.03,3.12,0,4.62.28,3.85.74,6.58,2.96,8.31,6.51,1.05,2.15,1.37,4.37,1.37,6.7,0,7.13,0,14.26,0,21.39,0,2.44-1.29,4.55-3.26,4.96-3.99.83-6.8-.42-6.86-5.06-.08-5.85-.06-11.7,0-17.55.02-2.22-.45-4.31-1.19-6.36-.7-1.95-3.3-3.14-5.62-2.93-4.22.38-6.48,2.92-7.67,6.65-.36,1.14-.34,2.43-.34,3.65-.03,5.39,0,10.79-.02,16.18,0,1.81-.42,3.37-1.99,4.64-1.89,1.53-3.9,1.22-5.78.54-1.68-.61-2.38-2.26-2.38-4.1,0-6.49,0-12.98,0-19.61Z"/>
  <path class="st1" d="M488.33,116.49c2.89.07,5.35.98,7.55,2.65,2.2,1.67,3.26,3.94,3.91,6.6.92,3.79.39,7.6.48,11.4.11,4.53-.03,9.02,1.46,13.44,1.41,4.2-2.17,6.63-5.6,5.96-1.12-.22-2.16-1.26-3.03-2.13-.84-.84-1.41-1.94-2.12-2.95-1.43.89-2.83,1.78-4.24,2.65-2.14,1.33-4.45,2.34-6.96,2.47-2.4.12-4.91.23-7.2-.36-3.56-.92-6.31-3.08-7.84-6.69-.98-2.3-1.18-4.58-.58-6.87.72-2.73,2.37-4.89,4.82-6.43,1.76-1.11,3.69-1.65,5.7-2.06,4.01-.82,8.02-1.67,12.02-2.57,1.12-.25,2.19-.75,3.62-1.26-.52-1.58-.87-3.22-1.62-4.64-.4-.77-1.4-1.5-2.27-1.71-3.18-.79-6.49-.99-9.27,1.01-1.54,1.11-2.66,2.87-3.79,4.46-1.05,1.48-2.65,1.97-4.45,1.51-1.78-.45-2.82-1.51-3.2-3.13-.2-.82.15-1.79.33-2.67.36-1.76,1.23-3.21,2.56-4.45,2.33-2.18,5.12-3.62,8.17-3.97,3.78-.43,7.63-.21,11.57-.23M489.09,137.39c-1.56.38-3.13.76-4.69,1.16-2.76.7-5.69.87-8.16,2.54-2.53,1.71-2.38,5.85.19,7.49,3.42,2.18,6.6.96,9.74-.56.81-.39,1.51-1.15,2.07-1.88,1.85-2.38,1.61-5.29,1.9-8.06.06-.57-.06-1.05-1.05-.68Z"/>
  <path class="st1" d="M383.61,125.27c1.11,2.94,2.04,5.79,1.79,8.93-.18,2.24-1.29,3.9-3.48,4.4-1.14.26-2.33.45-3.49.46-6.17.04-12.34.02-18.51.02h-1.58c-.43,2.47.66,4.44,1.63,6.38.9,1.79,2.5,3.01,4.34,3.7,2.32.87,4.72.76,7.05-.1,2.99-1.1,5.1-3.41,7.35-5.5,1.63-1.51,5.05-.83,5.84,1.21.93,2.41-.37,4.2-1.65,5.88-1.65,2.15-3.93,3.51-6.45,4.56-4.96,2.06-10.07,1.83-15.12.82-3.49-.7-6.54-2.57-8.91-5.34-2.5-2.92-4.06-6.24-4.37-10.11-.14-1.74-.64-3.51-.48-5.22.44-4.76,1.42-9.33,4.79-13.11,3.5-3.93,7.81-5.89,12.99-5.91,2.49,0,5.04.02,7.46.55,4.34.94,7.74,3.42,10.06,7.28.21.35.46.67.75,1.09M368.23,133.32c1.69,0,3.38,0,5.07,0q1.82,0,1.65-1.62c0-.09,0-.18,0-.27-.18-3.56-2.65-7.15-6.77-7.78-6.41-.99-9.51,4.54-9.79,9.68h9.84Z"/>
  <path class="st1" d="M544.66,155.59c-2.87-.68-5.04-2.19-7.06-4.21-5.22-5.19-5.87-11.54-5.3-18.37.26-3.16,1.31-6,2.88-8.63,1.67-2.8,4.04-4.91,7.08-6.32,4.95-2.3,10.08-2.24,15.19-1.15,3.82.82,6.87,3.14,9.21,6.35,2.6,3.56,3.41,7.54,3.02,11.83-.16,1.7-1.22,2.85-2.77,3.38-1.1.37-2.31.57-3.47.58-6.85.05-13.71.03-20.73.03.09,2.08.37,4.09,1.37,5.87,1.02,1.82,2.39,3.36,4.48,4.1,2.54.9,5,.86,7.51-.17,2.77-1.13,4.77-3.25,6.91-5.18,1.44-1.31,4-1.13,4.93-.35,1.84,1.54,1.55,3.21.8,5.03-1.29,3.15-3.89,4.88-6.62,6.32-1.94,1.02-4.25,1.71-6.44,1.83-3.29.18-6.62-.25-9.93-.46-.32-.02-.63-.3-1.05-.48M545.99,125.38c-2.19,2.15-2.88,4.91-3.2,7.84h17.2c-.45-1.61-.88-3.06-1.26-4.52-.91-3.48-5.29-5.85-8.63-5.04-1.37.33-2.64,1.04-4.11,1.72Z"/>
  <path class="st1" d="M250.62,123.29c.96,2.57,1.51,5.08,1.47,7.76-.08,6.76,0,13.53-.03,20.3-.01,3.84-3.36,6.23-7.02,5.09-2.03-.63-3.34-2.82-3.37-5.04-.08-5.67.02-11.34-.05-17-.02-1.85-.2-3.73-.59-5.54-.23-1.04-.92-2.04-1.58-2.92-1.06-1.41-2.8-1.38-4.27-1.32-3.86.17-6.42,2.25-7.59,5.89-.38,1.19-.46,2.5-.47,3.76-.05,5.35,0,10.7-.03,16.05-.01,2.03-.6,3.86-2.09,5.36-1.44,1.45-5.17,1.33-6.62-.13-1.29-1.29-1.74-2.73-1.73-4.53.05-9.92.07-19.84-.01-29.76-.01-1.88.74-3.28,2.16-4.12,1.63-.97,3.62-.95,5.24.06,1.71,1.07,2.41,2.87,2.22,5,1.28-1.08,2.43-2.13,3.66-3.07,2.19-1.67,4.64-2.64,7.44-2.52,1.68.07,3.4-.03,5.03.3,3.71.75,6.45,2.9,8.22,6.4Z"/>
  <path class="st1" d="M517.64,156.57c-.39.05-.66.03-.93.07-3.5.48-5.49-2.36-5.47-5.39.07-8.41,0-16.82.06-25.23,0-1.24-.37-1.58-1.55-1.51-1.43.09-2.86.18-4.2-.74-1.17-.8-1.77-1.7-1.7-3.13.06-1.31.68-2.07,1.76-2.79,1.4-.93,2.88-.73,4.35-.7,1.01.02,1.31-.27,1.35-1.3.07-2.45.14-4.92.54-7.32.46-2.79,2.3-4.6,4.91-5.71,2.14-.91,4.34-1.17,6.63-1.04,1.82.1,3.67-.03,5.44.33,1.96.4,3.69,1.38,4.35,3.55.51,1.68-2.12,4.22-3.99,4-1.68-.2-3.35-.55-5.09-.24-1.44.25-2.11,1.14-2.33,2.34-.26,1.42-.23,2.89-.34,4.34-.06.75.21,1.1,1,1.05.73-.05,1.47.08,2.19-.03,1.43-.21,2.52.57,3.68,1.14,1.46.71,1.7,4.77-.27,5.44-1.09.37-2.22.77-3.35.81-3.25.11-3.25.04-3.25,3.35,0,7.77,0,15.54,0,23.31,0,2.78-1.21,4.53-3.77,5.4Z"/>
  <path class="st1" d="M450.48,51.31c.97.62,2.02,1.09,2.63,1.89,1.38,1.82.32,4.14-1.68,4.91-1.52.59-3,.63-4.53.59-.86-.02-1.22.2-1.21,1.14.04,5.99,0,11.98.03,17.96,0,.99.14,1.99.29,2.98.22,1.43,1.72,2.29,3.35,2.01,1.2-.2,2.42-.42,3.63-.47,1.71-.08,3.38,1.01,3.66,2.25.46,1.98-.37,3.86-1.97,4.77-1.87,1.07-3.87,1.51-5.99,1.45-2.09-.06-4.21.03-6.27-.3-3.79-.6-6.14-3.57-6.65-7.38-1-7.58-.25-15.17-.46-22.76-.04-1.3-.33-1.74-1.67-1.68-2.22.1-3.86-1.6-3.86-3.76,0-1.88,1.7-3.59,3.62-3.61,2.02-.02,1.86.22,1.86-1.97,0-2.06-.09-4.12.03-6.17.11-1.97.71-3.73,2.39-5.07,1.78-1.42,5.35-.96,6.85,1.03.85,1.13,1.21,2.37,1.17,3.8-.07,2.42,0,4.85-.03,7.27-.01.83.26,1.15,1.1,1.11,1.19-.05,2.38-.01,3.68-.01Z"/>
  <path class="st1" d="M291.02,108.68c0,2.42.08,4.7-.03,6.98-.06,1.26.39,1.62,1.56,1.49.77-.08,1.55-.02,2.33-.02,2.64,0,4.64,1.62,4.04,4.62-.13.66-.71,1.38-1.28,1.76-1.52,1-3.28,1.24-5.07,1.02-1.3-.16-1.59.37-1.58,1.6.06,5.39-.03,10.78.06,16.17.02,1.59.37,3.19.69,4.76.27,1.29,1.49,1.8,3.02,1.53,1.2-.21,2.42-.39,3.64-.44,1.83-.08,3.2.82,3.54,2.17.5,2-.16,3.81-1.75,4.74-1.8,1.04-3.73,1.62-5.81,1.57-2.23-.06-4.49.04-6.67-.31-2.49-.4-4.35-1.85-5.57-4.2-1.1-2.11-1.19-4.37-1.23-6.59-.11-6.49-.08-12.97,0-19.46.02-1.35-.48-1.52-1.65-1.56-2.06-.06-4.05-1.34-3.96-3.8.09-2.19,1.55-3.25,3.68-3.51,1.99-.24,1.86.21,1.9-1.98.06-2.78-.02-5.57.31-8.32.43-3.54,5.14-4.82,7.71-2.94,1.63,1.19,2.15,2.72,2.12,4.72Z"/>
  <path class="st1" d="M323.66,81.48c0-8,0-15.86,0-23.72,0-1.67.04-3.36,1.07-4.79.46-.64.96-1.44,1.63-1.71,2.84-1.16,6.68-.78,7.43,3.33.3,1.63.53,3.29.54,4.94.05,8.32.08,16.64-.03,24.95-.02,1.44-.5,2.99-1.18,4.27-1.56,2.94-7.06,2.86-8.52-.35-1.02-2.23-.88-4.49-.94-6.93Z"/>
  <path class="st1" d="M207.36,145.39c-.09,2.5-.17,4.87-.28,7.23-.11,2.24-2.41,4.15-5.1,4.08-2.2-.05-4.68-1.79-4.77-4.14-.07-1.63-.25-3.27-.26-4.9-.03-8.32-.03-16.64,0-24.96,0-1.82.2-3.62,1.7-5,1.63-1.5,3.5-1.32,5.37-.86,1.74.44,2.81,1.71,3.04,3.49.21,1.57.28,3.17.29,4.76.03,6.72.01,13.44.01,20.29Z"/>
  <path class="st0" d="M137.64,50.83c1.25,1.47,2.62,2.75,3.56,4.3,1.73,2.85,2.78,5.93,2.56,9.39-.19,3-.92,5.81-2.54,8.3-1.45,2.23-2.99,4.47-4.84,6.36-3.63,3.73-3.99,9.1-.72,13.03,1.59,1.92,1.59,2.85.15,4.51-.87,1-2.9,1.2-3.77.26-3.66-3.93-5.62-8.43-4.52-13.92.5-2.51,1.74-4.65,3.29-6.64,1.9-2.43,3.89-4.81,5.61-7.37.66-.98.78-2.38.97-3.62.28-1.78.36-3.6-.5-5.28-.75-1.45-1.53-2.9-2.45-4.24-.71-1.04-1.7-1.89-2.52-2.86-.92-1.09-.75-3.21.29-4.23.87-.85,2.64-.72,3.74.31.55.52,1.07,1.07,1.68,1.68Z"/>
  <path class="st0" d="M117.17,62.2c-1.28-.94-1.11-2.3-.72-3.3.32-.85,1.3-1.7,2.17-2.02,1.32-.48,2.3.73,3.09,1.54,1.39,1.44,2.69,3.02,3.73,4.72,1.08,1.78,1.21,3.86.9,5.92-.49,3.24-2.29,5.74-4.44,8.12-1.49,1.65-3.01,3.45-3.87,5.46-.92,2.17-.98,4.68.21,6.92.71,1.34,1.61,2.58,2.44,3.86.56.85.34,2.72-.41,3.41-1.06.97-2.92,1.02-3.95.03-3.99-3.8-5.11-8.51-4.53-13.84.47-4.28,3.34-7.02,5.92-10.01.98-1.14,1.75-2.51,2.42-3.88,1.01-2.05-.42-4.23-2.15-6.11-.24-.26-.5-.5-.82-.82Z"/>
  <path class="st1" d="M546.47,106.58c.69-.96,1.22-1.96,2.02-2.64.73-.63,1.74-1.21,2.67-1.27,2.36-.18,4.74-.07,7.11-.04.38,0,.75.2,1.13.31-.14.4-.17.92-.44,1.19-2.1,2.06-4.27,4.05-6.39,6.1-1.93,1.87-4.18,2.75-6.88,2.55-1.46-.11-1.9-.63-1.3-1.99.62-1.4,1.36-2.74,2.09-4.2Z"/>
  <path class="st1" d="M323.92,40.1c.47-2.22,2.99-3.88,4.6-3.88,2.87,0,4.51,1.16,5.35,3.58,1.51,4.36-2.75,7.45-6.22,6.51-2.54-.69-4.66-3.05-3.73-6.2Z"/>
  <path class="st1" d="M203.37,102.06c.79.35,1.51.64,2.14,1.06,2.61,1.74,2.54,7.03-.86,8.52-3.14,1.37-5.24.36-7.11-1.91-1.4-1.71-.35-5.55,1.57-6.74,1.31-.81,2.66-1.08,4.26-.94Z"/>
  <path class="st0" d="M97.28,193.94c2.15,0,4.17,0,6.2,0,0,.06,0,.13,0,.19h-6.7s0-.07,0-.1c.13-.03.26-.06.51-.09Z"/>
</svg>